<svg width="96" height="108" viewBox="0 0 96 108" fill="none" xmlns="http://www.w3.org/2000/svg">
<path d="M-5.66815e-05 35.7891V47.7188H11.9296V43.7422L31.8123 43.7422V49.707C31.8136 50.7613 32.233 51.772 32.9785 52.5174C33.7239 53.2629 34.7346 53.6823 35.7888 53.6836H51.695C52.7493 53.6823 53.76 53.2629 54.5054 52.5174C55.2509 51.772 55.6703 50.7613 55.6716 49.707V33.8009C55.6703 32.7466 55.2509 31.7359 54.5054 30.9905C53.76 30.245 52.7493 29.8256 51.695 29.8243L35.7888 29.8243C34.7346 29.8256 33.7239 30.245 32.9785 30.9905C32.233 31.7359 31.8136 32.7466 31.8123 33.8009L33.8268 40.3953C32.0256 40.547 28.7147 39.135 27.5965 38.0167C26.4782 36.8985 25.8492 35.3823 25.8475 33.8009V15.9064L37.7771 15.9064V19.883H49.7068V7.95333H37.7771L37.7771 11.9299L25.8475 11.9299L25.8475 7.95333C25.8462 6.89909 25.4268 5.8884 24.6813 5.14294C23.9359 4.39748 22.9252 3.9781 21.8709 3.97679H11.9296V0.000241946H-5.66815e-05V11.9299H11.9296V7.95333H21.8709V21.8712L11.9296 21.8712V17.8947H-5.66815e-05L-5.66815e-05 29.8243H11.9296V25.8478L21.8709 25.8478V33.8009C21.8785 35.9588 22.5948 38.0546 23.9097 39.7657L11.9296 39.7657V35.7891H-5.66815e-05ZM51.695 33.8009V49.707H35.7888V33.8009H51.695ZM41.7537 11.9299H45.7302V15.9064H41.7537V11.9299ZM7.95303 7.95333H3.97649V3.97679H7.95303V7.95333ZM7.95303 25.8478H3.97649L3.97649 21.8712H7.95303L7.95303 25.8478ZM7.95303 43.7422H3.97649V39.7657H7.95303V43.7422Z" fill="black"/>
<rect x="57.5999" y="54.3999" width="26.4" height="25.6" transform="rotate(-180 57.5999 54.3999)" fill="white"/>
<path d="M61.9999 107.45C53.1845 107.44 44.733 103.934 38.4995 97.7006C32.2661 91.4671 28.7598 83.0156 28.7498 74.2002H33.4999C33.4999 79.837 35.1714 85.3472 38.303 90.034C41.4346 94.7208 45.8857 98.3737 51.0934 100.531C56.3011 102.688 62.0315 103.252 67.56 102.153C73.0884 101.053 78.1666 98.3386 82.1524 94.3528C86.1383 90.367 88.8526 85.2888 89.9523 79.7603C91.052 74.2318 90.4876 68.5014 88.3305 63.2937C86.1734 58.086 82.5205 53.6349 77.8337 50.5033C73.1468 47.3717 67.6367 45.7002 61.9999 45.7002V40.9502C70.8183 40.9502 79.2756 44.4533 85.5112 50.6889C91.7468 56.9245 95.2499 65.3818 95.2499 74.2002C95.2499 83.0187 91.7468 91.476 85.5112 97.7116C79.2756 103.947 70.8183 107.45 61.9999 107.45Z" fill="black"/>
<path d="M33.4999 64.7002V59.9502H44.3916L28.7498 44.3084L32.1081 40.9502L47.7499 56.592V45.7002H52.4999V64.7002H33.4999Z" fill="black"/>
<path d="M61.9999 59.9502V74.2002H47.7499C47.7499 77.0186 48.5856 79.7737 50.1514 82.1171C51.7172 84.4605 53.9428 86.287 56.5466 87.3655C59.1505 88.4441 62.0157 88.7263 64.7799 88.1764C67.5442 87.6266 70.0833 86.2694 72.0762 84.2765C74.0691 82.2836 75.4263 79.7445 75.9761 76.9803C76.5259 74.216 76.2437 71.3508 75.1652 68.747C74.0866 66.1431 72.2602 63.9176 69.9168 62.3518C67.5734 60.786 64.8183 59.9502 61.9999 59.9502Z" fill="black"/>
<path d="M31.1998 40H31.9998L37.5998 45.6L29.4678 42L31.1998 40Z" fill="black"/>
</svg>
