<svg width="250" height="89" viewBox="0 0 250 89" fill="none" xmlns="http://www.w3.org/2000/svg">
<path d="M140 23C140 22.875 140.042 22.7708 140.125 22.6875C140.25 22.5625 140.375 22.5 140.5 22.5H211.438C216.354 22.5 220.542 24.25 224 27.75C227.5 31.2083 229.25 35.3958 229.25 40.3125V46.5625C229.25 51.5208 227.5 55.75 224 59.25C220.542 62.7083 216.354 64.4375 211.438 64.4375H152.5V84.4375C152.5 84.6042 152.438 84.75 152.312 84.875C152.229 84.9583 152.104 85 151.938 85H140.5C140.375 85 140.25 84.9583 140.125 84.875C140.042 84.75 140 84.6042 140 84.4375V23ZM211.438 53.75C212.896 53.75 214.146 53.2292 215.188 52.1875C216.229 51.1042 216.75 49.8333 216.75 48.375V38.5625C216.75 37.0625 216.229 35.7917 215.188 34.75C214.146 33.7083 212.896 33.1875 211.438 33.1875H152.5V53.75H211.438Z" fill="white"/>
<path d="M249.516 8.03516V8.32812C249.516 9.83854 248.982 11.1406 247.914 12.2344C248.982 13.3151 249.516 14.6172 249.516 16.1406V16.4141C249.516 17.9505 248.969 19.2656 247.875 20.3594C246.794 21.4531 245.479 22 243.93 22H221.781C221.729 22 221.684 21.9805 221.645 21.9414C221.618 21.9023 221.605 21.8633 221.605 21.8242V18.8164C221.605 18.7643 221.625 18.7253 221.664 18.6992C221.703 18.6602 221.742 18.6406 221.781 18.6406H243.93C244.398 18.6406 244.796 18.4779 245.121 18.1523C245.447 17.8268 245.609 17.4297 245.609 16.9609V15.5742C245.609 15.1185 245.447 14.7279 245.121 14.4023C244.796 14.0638 244.398 13.8945 243.93 13.8945H224.574C224.522 13.8945 224.477 13.8815 224.438 13.8555C224.411 13.8164 224.398 13.7773 224.398 13.7383V10.7109C224.398 10.6719 224.411 10.6393 224.438 10.6133C224.477 10.5742 224.522 10.5547 224.574 10.5547H243.93C244.398 10.5547 244.796 10.3919 245.121 10.0664C245.447 9.74089 245.609 9.34375 245.609 8.875V7.48828C245.609 7.01953 245.447 6.6224 245.121 6.29688C244.796 5.97135 244.398 5.80859 243.93 5.80859H221.781C221.742 5.80859 221.703 5.79557 221.664 5.76953C221.625 5.73047 221.605 5.6849 221.605 5.63281V2.625C221.605 2.58594 221.625 2.55339 221.664 2.52734C221.703 2.48828 221.742 2.46875 221.781 2.46875H243.93C245.479 2.46875 246.794 3.01562 247.875 4.10938C248.969 5.1901 249.516 6.4987 249.516 8.03516Z" fill="white"/>
<path d="M70.4609 27.3125C70.4609 27.293 70.4674 27.2767 70.4805 27.2637C70.5 27.2441 70.5195 27.2344 70.5391 27.2344H81.623C82.3913 27.2344 83.0456 27.5078 83.5859 28.0547C84.1328 28.5951 84.4062 29.2493 84.4062 30.0176V30.9941C84.4062 31.7689 84.1328 32.4297 83.5859 32.9766C83.0456 33.5169 82.3913 33.7871 81.623 33.7871H72.4141V36.9121C72.4141 36.9382 72.4043 36.9609 72.3848 36.9805C72.3717 36.9935 72.3522 37 72.3262 37H70.5391C70.5195 37 70.5 36.9935 70.4805 36.9805C70.4674 36.9609 70.4609 36.9382 70.4609 36.9121V27.3125ZM81.623 32.1172C81.8509 32.1172 82.0462 32.0358 82.209 31.873C82.3717 31.7038 82.4531 31.5052 82.4531 31.2773V29.7441C82.4531 29.5098 82.3717 29.3112 82.209 29.1484C82.0462 28.9857 81.8509 28.9043 81.623 28.9043H72.4141V32.1172H81.623ZM89.2891 29.7441V31.2773H99.8066C99.8327 31.2773 99.8522 31.2871 99.8652 31.3066C99.8848 31.3197 99.8945 31.3392 99.8945 31.3652V32.8691C99.8945 32.8952 99.8848 32.918 99.8652 32.9375C99.8522 32.9505 99.8327 32.957 99.8066 32.957H89.2891V34.4902C89.2891 34.7181 89.3704 34.9167 89.5332 35.0859C89.696 35.2487 89.8945 35.3301 90.1289 35.3301H101.203C101.229 35.3301 101.249 35.3398 101.262 35.3594C101.281 35.3724 101.291 35.3887 101.291 35.4082V36.9121C101.291 36.9382 101.281 36.9609 101.262 36.9805C101.249 36.9935 101.229 37 101.203 37H90.1289C89.3542 37 88.6934 36.7298 88.1465 36.1895C87.6061 35.6426 87.3359 34.9818 87.3359 34.207V30.0273C87.3359 29.2526 87.6061 28.5951 88.1465 28.0547C88.6934 27.5078 89.3542 27.2344 90.1289 27.2344H101.203C101.229 27.2344 101.249 27.2441 101.262 27.2637C101.281 27.2767 101.291 27.2962 101.291 27.3223V28.8262C101.291 28.8457 101.281 28.8652 101.262 28.8848C101.249 28.8978 101.229 28.9043 101.203 28.9043H90.1289C89.8945 28.9043 89.696 28.9889 89.5332 29.1582C89.3704 29.321 89.2891 29.5163 89.2891 29.7441ZM106.184 29.7441V31.2773H116.701C116.727 31.2773 116.747 31.2871 116.76 31.3066C116.779 31.3197 116.789 31.3392 116.789 31.3652V32.8691C116.789 32.8952 116.779 32.918 116.76 32.9375C116.747 32.9505 116.727 32.957 116.701 32.957H106.184V34.4902C106.184 34.7181 106.265 34.9167 106.428 35.0859C106.59 35.2487 106.789 35.3301 107.023 35.3301H118.098C118.124 35.3301 118.143 35.3398 118.156 35.3594C118.176 35.3724 118.186 35.3887 118.186 35.4082V36.9121C118.186 36.9382 118.176 36.9609 118.156 36.9805C118.143 36.9935 118.124 37 118.098 37H107.023C106.249 37 105.588 36.7298 105.041 36.1895C104.501 35.6426 104.23 34.9818 104.23 34.207V30.0273C104.23 29.2526 104.501 28.5951 105.041 28.0547C105.588 27.5078 106.249 27.2344 107.023 27.2344H118.098C118.124 27.2344 118.143 27.2441 118.156 27.2637C118.176 27.2767 118.186 27.2962 118.186 27.3223V28.8262C118.186 28.8457 118.176 28.8652 118.156 28.8848C118.143 28.8978 118.124 28.9043 118.098 28.9043H107.023C106.789 28.9043 106.59 28.9889 106.428 29.1582C106.265 29.321 106.184 29.5163 106.184 29.7441ZM135.07 31.0039C135.07 31.5703 134.921 32.0814 134.621 32.5371C134.322 32.9863 133.924 33.3216 133.43 33.543L133.469 33.6211L135.021 36.8828C135.028 36.9089 135.025 36.9349 135.012 36.9609C134.999 36.987 134.976 37 134.943 37H132.961C132.928 37 132.902 36.9837 132.883 36.9512L131.379 33.7969H123.078V36.9219C123.078 36.9414 123.068 36.9609 123.049 36.9805C123.036 36.9935 123.016 37 122.99 37H121.203C121.184 37 121.164 36.9935 121.145 36.9805C121.132 36.9609 121.125 36.9414 121.125 36.9219V27.3223C121.125 27.2962 121.132 27.2767 121.145 27.2637C121.164 27.2441 121.184 27.2344 121.203 27.2344H132.287C133.055 27.2344 133.71 27.5078 134.25 28.0547C134.797 28.5951 135.07 29.2526 135.07 30.0273V31.0039ZM123.078 32.1172H132.287C132.515 32.1172 132.71 32.0358 132.873 31.873C133.036 31.7103 133.117 31.5117 133.117 31.2773V29.7441C133.117 29.5163 133.036 29.321 132.873 29.1582C132.71 28.9954 132.515 28.9141 132.287 28.9141H123.078V32.1172ZM70.4609 50.3125C70.4609 50.293 70.4674 50.2767 70.4805 50.2637C70.5 50.2441 70.5195 50.2344 70.5391 50.2344H81.623C82.3913 50.2344 83.0456 50.5078 83.5859 51.0547C84.1328 51.5951 84.4062 52.2493 84.4062 53.0176V53.9941C84.4062 54.7689 84.1328 55.4297 83.5859 55.9766C83.0456 56.5169 82.3913 56.7871 81.623 56.7871H72.4141V59.9121C72.4141 59.9382 72.4043 59.9609 72.3848 59.9805C72.3717 59.9935 72.3522 60 72.3262 60H70.5391C70.5195 60 70.5 59.9935 70.4805 59.9805C70.4674 59.9609 70.4609 59.9382 70.4609 59.9121V50.3125ZM81.623 55.1172C81.8509 55.1172 82.0462 55.0358 82.209 54.873C82.3717 54.7038 82.4531 54.5052 82.4531 54.2773V52.7441C82.4531 52.5098 82.3717 52.3112 82.209 52.1484C82.0462 51.9857 81.8509 51.9043 81.623 51.9043H72.4141V55.1172H81.623ZM101.291 50.3223V57.2168C101.291 57.985 101.018 58.6426 100.471 59.1895C99.9303 59.7298 99.2728 60 98.498 60H90.1289C89.3607 60 88.7031 59.7298 88.1562 59.1895C87.6094 58.6426 87.3359 57.985 87.3359 57.2168V50.3223C87.3359 50.2962 87.3424 50.2767 87.3555 50.2637C87.375 50.2441 87.3978 50.2344 87.4238 50.2344H89.2109C89.2305 50.2344 89.2467 50.2441 89.2598 50.2637C89.2793 50.2767 89.2891 50.2962 89.2891 50.3223V57.4902C89.2891 57.7246 89.3704 57.9232 89.5332 58.0859C89.7025 58.2487 89.901 58.3301 90.1289 58.3301H98.498C98.7324 58.3301 98.931 58.2487 99.0938 58.0859C99.2565 57.9232 99.3379 57.7246 99.3379 57.4902V50.3223C99.3379 50.2962 99.3444 50.2767 99.3574 50.2637C99.377 50.2441 99.3997 50.2344 99.4258 50.2344H101.203C101.229 50.2344 101.249 50.2441 101.262 50.2637C101.281 50.2767 101.291 50.2962 101.291 50.3223ZM106.184 52.7441V53.4375C106.184 53.6719 106.265 53.8704 106.428 54.0332C106.59 54.196 106.786 54.2773 107.014 54.2773H115.393C116.161 54.2773 116.815 54.5508 117.355 55.0977C117.902 55.638 118.176 56.2956 118.176 57.0703V57.207C118.176 57.9753 117.902 58.6328 117.355 59.1797C116.815 59.7266 116.161 60 115.393 60H104.865C104.846 60 104.826 59.9935 104.807 59.9805C104.794 59.9609 104.787 59.9382 104.787 59.9121V58.4082C104.787 58.3822 104.794 58.3626 104.807 58.3496C104.826 58.3301 104.846 58.3203 104.865 58.3203H115.393C115.62 58.3203 115.816 58.2389 115.979 58.0762C116.141 57.9134 116.223 57.7181 116.223 57.4902V56.7871C116.223 56.5592 116.141 56.3639 115.979 56.2012C115.816 56.0319 115.62 55.9473 115.393 55.9473H107.014C106.245 55.9473 105.588 55.6771 105.041 55.1367C104.501 54.5898 104.23 53.9323 104.23 53.1641V53.0176C104.23 52.2493 104.501 51.5951 105.041 51.0547C105.588 50.5078 106.245 50.2344 107.014 50.2344H117.541C117.561 50.2344 117.577 50.2441 117.59 50.2637C117.609 50.2767 117.619 50.293 117.619 50.3125V51.8262C117.619 51.8457 117.609 51.8652 117.59 51.8848C117.577 51.8978 117.561 51.9043 117.541 51.9043H107.014C106.786 51.9043 106.59 51.9857 106.428 52.1484C106.265 52.3112 106.184 52.5098 106.184 52.7441ZM135.061 50.3223V59.9219C135.061 59.9414 135.051 59.9609 135.031 59.9805C135.018 59.9935 134.999 60 134.973 60H133.195C133.169 60 133.146 59.9935 133.127 59.9805C133.114 59.9609 133.107 59.9414 133.107 59.9219V55.957H123.059V59.9219C123.059 59.9414 123.049 59.9609 123.029 59.9805C123.016 59.9935 123 60 122.98 60H121.193C121.167 60 121.145 59.9935 121.125 59.9805C121.112 59.9609 121.105 59.9414 121.105 59.9219V50.3223C121.105 50.2962 121.112 50.2767 121.125 50.2637C121.145 50.2441 121.167 50.2344 121.193 50.2344H122.98C123 50.2344 123.016 50.2441 123.029 50.2637C123.049 50.2767 123.059 50.2962 123.059 50.3223V54.2773H133.107V50.3223C133.107 50.2962 133.114 50.2767 133.127 50.2637C133.146 50.2441 133.169 50.2344 133.195 50.2344H134.973C134.999 50.2344 135.018 50.2441 135.031 50.2637C135.051 50.2767 135.061 50.2962 135.061 50.3223ZM2.92188 73.3125C2.92188 73.293 2.92839 73.2767 2.94141 73.2637C2.96094 73.2441 2.98047 73.2344 3 73.2344H14.084C14.8522 73.2344 15.5065 73.5078 16.0469 74.0547C16.5938 74.5951 16.8672 75.2493 16.8672 76.0176V76.9941C16.8672 77.7689 16.5938 78.4297 16.0469 78.9766C15.5065 79.5169 14.8522 79.7871 14.084 79.7871H4.875V82.9121C4.875 82.9382 4.86523 82.9609 4.8457 82.9805C4.83268 82.9935 4.81315 83 4.78711 83H3C2.98047 83 2.96094 82.9935 2.94141 82.9805C2.92839 82.9609 2.92188 82.9382 2.92188 82.9121V73.3125ZM14.084 78.1172C14.3118 78.1172 14.5072 78.0358 14.6699 77.873C14.8327 77.7038 14.9141 77.5052 14.9141 77.2773V75.7441C14.9141 75.5098 14.8327 75.3112 14.6699 75.1484C14.5072 74.9857 14.3118 74.9043 14.084 74.9043H4.875V78.1172H14.084ZM33.7422 77.0039C33.7422 77.5703 33.5924 78.0814 33.293 78.5371C32.9935 78.9863 32.5964 79.3216 32.1016 79.543L32.1406 79.6211L33.6934 82.8828C33.6999 82.9089 33.6966 82.9349 33.6836 82.9609C33.6706 82.987 33.6478 83 33.6152 83H31.6328C31.6003 83 31.5742 82.9837 31.5547 82.9512L30.0508 79.7969H21.75V82.9219C21.75 82.9414 21.7402 82.9609 21.7207 82.9805C21.7077 82.9935 21.6882 83 21.6621 83H19.875C19.8555 83 19.8359 82.9935 19.8164 82.9805C19.8034 82.9609 19.7969 82.9414 19.7969 82.9219V73.3223C19.7969 73.2962 19.8034 73.2767 19.8164 73.2637C19.8359 73.2441 19.8555 73.2344 19.875 73.2344H30.959C31.7272 73.2344 32.3815 73.5078 32.9219 74.0547C33.4688 74.5951 33.7422 75.2526 33.7422 76.0273V77.0039ZM21.75 78.1172H30.959C31.1868 78.1172 31.3822 78.0358 31.5449 77.873C31.7077 77.7103 31.7891 77.5117 31.7891 77.2773V75.7441C31.7891 75.5163 31.7077 75.321 31.5449 75.1582C31.3822 74.9954 31.1868 74.9141 30.959 74.9141H21.75V78.1172ZM47.834 73.2344C48.6087 73.2344 49.2663 73.5078 49.8066 74.0547C50.3535 74.5951 50.627 75.2526 50.627 76.0273V80.207C50.627 80.9818 50.3535 81.6426 49.8066 82.1895C49.2663 82.7298 48.6087 83 47.834 83H39.4648C38.6966 83 38.0391 82.7298 37.4922 82.1895C36.9453 81.6426 36.6719 80.9818 36.6719 80.207V76.0273C36.6719 75.2526 36.9453 74.5951 37.4922 74.0547C38.0391 73.5078 38.6966 73.2344 39.4648 73.2344H47.834ZM48.6738 75.7441C48.6738 75.5163 48.5924 75.321 48.4297 75.1582C48.2669 74.9889 48.0684 74.9043 47.834 74.9043H39.4648C39.237 74.9043 39.0384 74.9889 38.8691 75.1582C38.7064 75.321 38.625 75.5163 38.625 75.7441V80.4902C38.625 80.7181 38.7064 80.9167 38.8691 81.0859C39.0384 81.2487 39.237 81.3301 39.4648 81.3301H47.834C48.0684 81.3301 48.2669 81.2487 48.4297 81.0859C48.5924 80.9167 48.6738 80.7181 48.6738 80.4902V75.7441ZM53.5664 73.3223C53.5664 73.2962 53.5729 73.2767 53.5859 73.2637C53.6055 73.2441 53.625 73.2344 53.6445 73.2344H67.4336C67.4531 73.2344 67.4694 73.2441 67.4824 73.2637C67.502 73.2767 67.5117 73.2962 67.5117 73.3223V74.8262C67.5117 74.8457 67.502 74.8652 67.4824 74.8848C67.4694 74.8978 67.4531 74.9043 67.4336 74.9043H61.5156V82.9121C61.5156 82.9382 61.5059 82.9609 61.4863 82.9805C61.4733 82.9935 61.457 83 61.4375 83H59.6504C59.6243 83 59.6016 82.9935 59.582 82.9805C59.569 82.9609 59.5625 82.9382 59.5625 82.9121V74.9043H53.6445C53.625 74.9043 53.6055 74.8978 53.5859 74.8848C53.5729 74.8652 53.5664 74.8457 53.5664 74.8262V73.3223ZM81.6035 73.2344C82.3783 73.2344 83.0358 73.5078 83.5762 74.0547C84.123 74.5951 84.3965 75.2526 84.3965 76.0273V80.207C84.3965 80.9818 84.123 81.6426 83.5762 82.1895C83.0358 82.7298 82.3783 83 81.6035 83H73.2344C72.4661 83 71.8086 82.7298 71.2617 82.1895C70.7148 81.6426 70.4414 80.9818 70.4414 80.207V76.0273C70.4414 75.2526 70.7148 74.5951 71.2617 74.0547C71.8086 73.5078 72.4661 73.2344 73.2344 73.2344H81.6035ZM82.4434 75.7441C82.4434 75.5163 82.362 75.321 82.1992 75.1582C82.0365 74.9889 81.8379 74.9043 81.6035 74.9043H73.2344C73.0065 74.9043 72.8079 74.9889 72.6387 75.1582C72.4759 75.321 72.3945 75.5163 72.3945 75.7441V80.4902C72.3945 80.7181 72.4759 80.9167 72.6387 81.0859C72.8079 81.2487 73.0065 81.3301 73.2344 81.3301H81.6035C81.8379 81.3301 82.0365 81.2487 82.1992 81.0859C82.362 80.9167 82.4434 80.7181 82.4434 80.4902V75.7441ZM90.1289 81.3301H101.203C101.229 81.3301 101.249 81.3398 101.262 81.3594C101.281 81.3724 101.291 81.3887 101.291 81.4082V82.9121C101.291 82.9382 101.281 82.9609 101.262 82.9805C101.249 82.9935 101.229 83 101.203 83H90.1289C89.3542 83 88.6934 82.7298 88.1465 82.1895C87.6061 81.6426 87.3359 80.9818 87.3359 80.207V76.0273C87.3359 75.2526 87.6061 74.5951 88.1465 74.0547C88.6934 73.5078 89.3542 73.2344 90.1289 73.2344H101.203C101.229 73.2344 101.249 73.2441 101.262 73.2637C101.281 73.2767 101.291 73.2962 101.291 73.3223V74.8262C101.291 74.8457 101.281 74.8652 101.262 74.8848C101.249 74.8978 101.229 74.9043 101.203 74.9043H90.1289C89.8945 74.9043 89.696 74.9889 89.5332 75.1582C89.3704 75.321 89.2891 75.5163 89.2891 75.7441V80.4902C89.2891 80.7181 89.3704 80.9167 89.5332 81.0859C89.696 81.2487 89.8945 81.3301 90.1289 81.3301ZM115.393 73.2344C116.167 73.2344 116.825 73.5078 117.365 74.0547C117.912 74.5951 118.186 75.2526 118.186 76.0273V80.207C118.186 80.9818 117.912 81.6426 117.365 82.1895C116.825 82.7298 116.167 83 115.393 83H107.023C106.255 83 105.598 82.7298 105.051 82.1895C104.504 81.6426 104.23 80.9818 104.23 80.207V76.0273C104.23 75.2526 104.504 74.5951 105.051 74.0547C105.598 73.5078 106.255 73.2344 107.023 73.2344H115.393ZM116.232 75.7441C116.232 75.5163 116.151 75.321 115.988 75.1582C115.826 74.9889 115.627 74.9043 115.393 74.9043H107.023C106.796 74.9043 106.597 74.9889 106.428 75.1582C106.265 75.321 106.184 75.5163 106.184 75.7441V80.4902C106.184 80.7181 106.265 80.9167 106.428 81.0859C106.597 81.2487 106.796 81.3301 107.023 81.3301H115.393C115.627 81.3301 115.826 81.2487 115.988 81.0859C116.151 80.9167 116.232 80.7181 116.232 80.4902V75.7441ZM135.07 81.4082V82.9219C135.07 82.9414 135.061 82.9609 135.041 82.9805C135.028 82.9935 135.012 83 134.992 83H123.918C123.143 83 122.482 82.7298 121.936 82.1895C121.395 81.6426 121.125 80.9818 121.125 80.207V73.3223C121.125 73.2962 121.132 73.2767 121.145 73.2637C121.164 73.2441 121.184 73.2344 121.203 73.2344H122.99C123.016 73.2344 123.036 73.2441 123.049 73.2637C123.068 73.2767 123.078 73.2962 123.078 73.3223V80.4902C123.078 80.7181 123.16 80.9167 123.322 81.0859C123.485 81.2487 123.684 81.3301 123.918 81.3301H134.992C135.012 81.3301 135.028 81.3398 135.041 81.3594C135.061 81.3724 135.07 81.3887 135.07 81.4082Z" fill="white"/>
</svg>
